# xmcd
#
# Track frame offsets:
#	150
#	11118
#	25407
#	38029
#	48112
#	59905
#	71955
#	84042
#	95941
#	108651
#	119500
#	130576
#	143233
#	155006
#	167767
#
# Disc length: 2331 seconds
#
# Revision: 0
# Processed by: cddbd v1.5.2PL0 Copyright (c) Steve Scherf et al.
# Submitted via: audiograbber 1.83.01
#
DISCID=d809190f
DTITLE=Various Artist - Classic Country - 1961-1965
DYEAR=2001
DGENRE=Country
TTITLE0=Buck Owens - Act Naturally (1963)
TTITLE1=Jim Reeves - This Is It (1965)
TTITLE2=Hank Snow - I've Been Everywhere (1975)
TTITLE3=Eddy Arnold - What's He Doin' In My World (1965)
TTITLE4=Wanda Jackson - In The Middle Of A Heartache (1961)
TTITLE5=Ernest Ashworth - Talk Back Trembling Lips (1963)
TTITLE6=Bobby Edwars - You're The Reason (1961)
TTITLE7=Gorge Jones and Melba Montgomery - We Must Have Been Out Of Our Minds (19
TTITLE7=63)
TTITLE8=Hank Thompson - Oklahoma Hills (1961)
TTITLE9=Leroy van Dyke - If A Woman Answers (Hang Up The Phone) (1962)
TTITLE10=Dave Dudley - Truck Drivin' Son-Of-A-Gun (1965)
TTITLE11=Bobby Bare - Four Strong Winds (1964)
TTITLE12=Ernest Tubb - Thanks A Lot (1963)
TTITLE13=Bill Anderson - Still (1961)
TTITLE14=Lester Flatt and Earl Scruggs and The Foggy Mountain Boys - The Ballad Of 
TTITLE14=Jed Clampett (1962)
EXTD=
EXTT0=
EXTT1=
EXTT2=
EXTT3=
EXTT4=
EXTT5=
EXTT6=
EXTT7=
EXTT8=
EXTT9=
EXTT10=
EXTT11=
EXTT12=
EXTT13=
EXTT14=
PLAYORDER=
